<svg id="Layer_1" data-name="Layer 1" xmlns="http://www.w3.org/2000/svg" viewBox="0 0 717.07 857.87"><defs><style>.cls-1{fill:none;stroke:#58595b;stroke-miterlimit:10;}.cls-2{fill:#231f20;}</style></defs><title>slosh</title><rect class="cls-1" x="86.1" y="69.62" width="545.46" height="714"/><path class="cls-2" d="M235.18,603.46l10.3-3.58a11.3,11.3,0,0,0,3.77,5.88,11,11,0,0,0,6.71,1.84,10.87,10.87,0,0,0,5.47-1.24,3.64,3.64,0,0,0,2.16-3.17,3.4,3.4,0,0,0-2.11-3,32.12,32.12,0,0,0-7.63-2.34q-15.63-3.4-15.63-14.89a11.45,11.45,0,0,1,2.3-7,14.77,14.77,0,0,1,6.11-4.73,20,20,0,0,1,8-1.65q12.41,0,18.11,10.39l-8.18,5.7q-3.31-6.34-9.84-6.34a7.82,7.82,0,0,0-4.18,1.1,3.27,3.27,0,0,0-1.79,2.85,3.56,3.56,0,0,0,1.75,3q1.74,1.19,6.62,2.2,8.64,1.66,12.82,4.83t4.18,9.15a12.93,12.93,0,0,1-5.29,10.89q-5.29,4-13.28,4Q240,617.34,235.18,603.46Z"/><path class="cls-2" d="M293,612.51q-5.1-4.82-5.1-13.37V562H276.09v-9.74h23.26v44.4q0,5.43,1.93,7.54a6.52,6.52,0,0,0,5.06,2.11q6.25,0,7.72-7.81l10,2q-1.2,8.27-5.84,12.55a16.89,16.89,0,0,1-11.9,4.28Q298.15,617.34,293,612.51Z"/><path class="cls-2" d="M340.43,614.12a21.73,21.73,0,0,1-8-8.69,27.06,27.06,0,0,1,0-24,21.74,21.74,0,0,1,8-8.69,24.15,24.15,0,0,1,24.08,0,21.77,21.77,0,0,1,8,8.69,27.06,27.06,0,0,1,0,24,21.76,21.76,0,0,1-8,8.69,24.14,24.14,0,0,1-24.08,0Zm20.73-10.66a17.84,17.84,0,0,0,0-20,11.19,11.19,0,0,0-17.37,0,17.84,17.84,0,0,0,0,20,11.19,11.19,0,0,0,17.37,0Z"/><path class="cls-2" d="M385.38,603.46l10.29-3.58a11.31,11.31,0,0,0,3.77,5.88,11,11,0,0,0,6.71,1.84,10.87,10.87,0,0,0,5.47-1.24,3.64,3.64,0,0,0,2.16-3.17,3.4,3.4,0,0,0-2.11-3,32.14,32.14,0,0,0-7.63-2.34q-15.63-3.4-15.63-14.89a11.45,11.45,0,0,1,2.3-7,14.77,14.77,0,0,1,6.11-4.73,20,20,0,0,1,8-1.65q12.41,0,18.11,10.39l-8.18,5.7q-3.31-6.34-9.84-6.34a7.82,7.82,0,0,0-4.18,1.1,3.27,3.27,0,0,0-1.79,2.85,3.56,3.56,0,0,0,1.75,3q1.74,1.19,6.62,2.2,8.64,1.66,12.82,4.83t4.18,9.15a12.93,12.93,0,0,1-5.29,10.89q-5.29,4-13.28,4Q390.16,617.34,385.38,603.46Z"/><path class="cls-2" d="M436.76,551.52h11.4v26.2a17.71,17.71,0,0,1,6.11-5.93,16.6,16.6,0,0,1,8.6-2.25q6.71,0,10.57,3.54t3.86,10.43V616.6H465.9v-29q0-4.23-1.7-6.25a6.41,6.41,0,0,0-5.19-2,8.4,8.4,0,0,0-5.24,1.93,13.54,13.54,0,0,0-4,5.88,27.17,27.17,0,0,0-1.56,9.93V616.6h-11.4Z"/><path class="cls-2" d="M478.47,311.23l-52.5.67-.93-2.21a145.23,145.23,0,0,0-21.42-34.79l-.87-1.07-26.21,1.76,2.57,3.84a222.89,222.89,0,0,1,16,27.73l2.39,5-68.92.64.65-4.15a68.37,68.37,0,0,0-2.76-32.2,52.09,52.09,0,0,0-19-26.05,37,37,0,0,0-19-7.21,38.06,38.06,0,0,0-9.32.19,43.17,43.17,0,0,0-12.24,3.77c-7.21,3.38-13.82,9.06-19.65,16.86-5.71,7.64-9.2,15.57-10.38,23.58a40.94,40.94,0,0,0,2.61,22.4,41.36,41.36,0,0,0,13.84,17.51,60.2,60.2,0,0,0,18.91,9.34,84.38,84.38,0,0,0,22.2,3.52l3.94.09-.49,3.91a85.38,85.38,0,0,0,4,38.65c4.23,12.33,12.21,22.94,23.72,31.53a70.12,70.12,0,0,0,22.71,11.57l1,.28s4.54,1,4.37,8.1c-.25,10.75,0,52,0,52.46v.21a17.46,17.46,0,0,1-4.85,12.32c-5.46,5.8-14.91,8.6-28.09,8.26l.38,0-8.36,15.32H415.2l-6.5-15.64h0c-.17,0-20.68,1.37-29.81-7-3.66-3.36-5.44-7.76-5.44-13.46V435.3h0c0-.06-.24-7.53,4-9.1,3.55-1,7.71-1.9,11.7-3.89,10-5,18.81-12.53,26.26-22.52,12.63-16.9,18.73-35.49,18.13-55.25l-.11-3.64,23-.18ZM405,364.69l-2.56-.78a61.57,61.57,0,0,1-9.84,18.46c-6.22,8.32-14,13.22-23.2,14.55l-.31,0c-9.29,1.26-18-1.09-25.9-7A45.59,45.59,0,0,1,328,370.21a54.83,54.83,0,0,1-3.53-25.9l.3-3.23,79.93-.15.11,3.45a59.85,59.85,0,0,1-2.4,19.52l2.56.79ZM302.36,311.56l-.6,2.7-2.76.09a58.88,58.88,0,0,1-14.87-1.18,33.25,33.25,0,0,1-12.57-5.89,18.54,18.54,0,0,1-7.85-13.11A20.19,20.19,0,0,1,268,279.54a19.36,19.36,0,0,1,12.16-7.93,17.18,17.18,0,0,1,3.07-.28A18,18,0,0,1,294,275.1C303.37,282.08,306.17,294.35,302.36,311.56Z"/></svg>